# xmcd
#
# Track frame offsets: 
#        183
#        42408
#        101658
#        138850
#        188958
#        240783
#
# Disc length: 3964 seconds
#
# Revision: 9
# Processed by: cddbd v1.5.2PL0 Copyright (c) Steve Scherf et al.
# Submitted via: ExactAudioCopyFreeDBPlugin 1.0
#
DISCID=460f7a06
DTITLE=Berliner Philharmoniker Herbert Von Karajan - Herbert Von Karaj
DTITLE=an L'Edition Symphonique
DYEAR=1964
DGENRE=Classique
TTITLE0=Antonin Dvorak - Symphonie Nr. 9 e-moll op. 95 'Aus der Neuen 
TTITLE0=Welt', 1. Adagio - Allegro molto
TTITLE1=Antonin Dvorak - Symphonie Nr. 9 e-moll op. 95 'Aus der Neuen 
TTITLE1=Welt', 2. Largo
TTITLE2=Antonin Dvorak - Symphonie Nr. 9 e-moll op. 95 'Aus der Neuen 
TTITLE2=Welt', 3. Molto vivace
TTITLE3=Antonin Dvorak - Symphonie Nr. 9 e-moll op. 95 'Aus der Neuen 
TTITLE3=Welt', 4. Allegro con fuoco
TTITLE4=Franz Schubert - Symphonie Nr. 8 h-moll D 759 'Unvollendete', 
TTITLE4=1. Andante moderato
TTITLE5=Franz Schubert - Symphonie Nr. 8 h-moll D 759 'Unvollendete', 
TTITLE5=2. Andante con moto
EXTD=
EXTT0=
EXTT1=
EXTT2=
EXTT3=
EXTT4=
EXTT5=
PLAYORDER=
